<svg width="532" height="83" viewBox="0 0 532 83" fill="none" xmlns="http://www.w3.org/2000/svg">
<path d="M247.045 1.73901C254.29 1.73901 260.9 3.30293 266.875 6.43076C272.85 9.5586 277.443 13.8407 280.655 19.2772L267.211 27.4878C264.933 24.0621 262.058 21.4183 258.585 19.5565C255.149 17.6574 251.265 16.7079 246.933 16.7079C239.8 16.7079 233.881 19.091 229.176 23.8573C224.508 28.6235 222.174 34.7674 222.174 42.2891C222.174 49.9598 224.526 56.141 229.232 60.8327C233.937 65.5245 239.838 67.8703 246.933 67.8703C255.672 67.8703 262.487 64.2957 267.379 57.1463L280.151 66.3064C276.566 71.4822 271.916 75.541 266.203 78.4826C260.489 81.387 254.103 82.8392 247.045 82.8392C241.07 82.8392 235.524 81.8339 230.408 79.8231C225.292 77.7751 220.941 74.9638 217.356 71.3891C213.771 67.8145 210.952 63.5323 208.898 58.5427C206.881 53.5158 205.873 48.098 205.873 42.2891C205.873 36.4803 206.881 31.0811 208.898 26.0914C210.952 21.0646 213.771 16.7638 217.356 13.1891C220.941 9.61445 225.292 6.82174 230.408 4.81099C235.524 2.76301 241.07 1.73901 247.045 1.73901Z" fill="#424C6D"/>
<path d="M318.6 25.8103C327.04 25.8103 334.042 28.5285 339.606 33.965C345.208 39.3642 348.009 46.1412 348.009 54.2959C348.009 62.4506 345.208 69.2462 339.606 74.6827C334.042 80.0819 327.04 82.7815 318.6 82.7815C310.197 82.7815 303.214 80.0819 297.649 74.6827C292.085 69.2462 289.303 62.4506 289.303 54.2959C289.303 46.1412 292.085 39.3642 297.649 33.965C303.214 28.5285 310.197 25.8103 318.6 25.8103ZM318.6 39.3829C314.455 39.3829 311.019 40.7792 308.293 43.5719C305.567 46.3646 304.203 49.9393 304.203 54.2959C304.203 58.6525 305.567 62.2272 308.293 65.0199C311.019 67.8126 314.455 69.209 318.6 69.209C322.782 69.209 326.237 67.8126 328.963 65.0199C331.689 62.2272 333.052 58.6525 333.052 54.2959C333.052 49.9393 331.689 46.3646 328.963 43.5719C326.237 40.7792 322.782 39.3829 318.6 39.3829Z" fill="#424C6D"/>
<path d="M383.981 25.8109C390.628 25.8109 395.95 28.1754 399.946 32.9044V0.955811H414.51V81.3858H400.226V75.4094C396.23 80.3246 390.815 82.7821 383.981 82.7821C376.475 82.7821 370.22 80.0639 365.215 74.6274C360.211 69.191 357.709 62.414 357.709 54.2965C357.709 46.1791 360.211 39.4021 365.215 33.9656C370.22 28.5291 376.475 25.8109 383.981 25.8109ZM386.67 39.3835C382.487 39.3835 379.108 40.8171 376.531 43.6842C373.954 46.5142 372.666 50.0516 372.666 54.2965C372.666 58.5414 373.954 62.0975 376.531 64.9647C379.108 67.7946 382.487 69.2096 386.67 69.2096C390.815 69.2096 394.176 67.8132 396.753 65.0205C399.367 62.1906 400.674 58.6159 400.674 54.2965C400.674 49.9771 399.367 46.4211 396.753 43.6284C394.176 40.7984 390.815 39.3835 386.67 39.3835Z" fill="#424C6D"/>
<path d="M455.096 25.8103C462.901 25.8103 469.249 28.4541 474.141 33.7416C479.034 38.9919 481.48 45.8247 481.48 54.2401C481.48 56.1019 481.386 57.7403 481.2 59.1552H442.716C443.426 62.9161 445.013 65.7274 447.477 67.5892C449.98 69.451 453.042 70.3819 456.664 70.3819C461.706 70.3819 466.28 68.6504 470.388 65.1875L478.959 74.571C472.909 80.0447 465.197 82.7815 455.824 82.7815C447.496 82.7815 440.718 80.175 435.49 74.962C430.262 69.7489 427.648 62.9161 427.648 54.4635C427.648 45.9737 430.187 39.085 435.266 33.7974C440.345 28.4727 446.955 25.8103 455.096 25.8103ZM454.984 38.3775C451.585 38.3775 448.859 39.327 446.805 41.2261C444.789 43.0879 443.444 45.7502 442.772 49.2132H466.803C466.131 45.713 464.787 43.032 462.77 41.1702C460.753 39.3084 458.158 38.3775 454.984 38.3775Z" fill="#424C6D"/>
<path d="M523.956 25.8103C526.868 25.8103 529.408 26.2013 531.574 26.9832L529.389 41.4495C526.775 40.2951 523.825 39.718 520.538 39.718C517.065 39.718 514.283 40.7792 512.192 42.9017C510.138 44.9869 509.111 47.9844 509.111 51.8942V81.3852H494.491V27.2625H508.663V33.1831C511.949 28.2679 517.047 25.8103 523.956 25.8103Z" fill="#424C6D"/>
<path d="M123.384 25.8103C126.297 25.8103 128.837 26.2013 131.003 26.9832L128.818 41.4495C126.204 40.2951 123.254 39.718 119.967 39.718C116.494 39.718 113.712 40.7792 111.621 42.9017C109.567 44.9869 108.54 47.9844 108.54 51.8942V81.3852H93.9197V27.2625H108.092V33.1831C111.378 28.2679 116.476 25.8103 123.384 25.8103Z" fill="#85A32A"/>
<path d="M166.161 25.8103C174.601 25.8103 181.603 28.5285 187.167 33.965C192.769 39.3642 195.57 46.1412 195.57 54.2959C195.57 62.4506 192.769 69.2462 187.167 74.6827C181.603 80.0819 174.601 82.7815 166.161 82.7815C157.759 82.7815 150.775 80.0819 145.211 74.6827C139.647 69.2462 136.865 62.4506 136.865 54.2959C136.865 46.1412 139.647 39.3642 145.211 33.965C150.775 28.5285 157.759 25.8103 166.161 25.8103ZM166.161 39.3829C162.016 39.3829 158.58 40.7792 155.854 43.5719C153.128 46.3646 151.765 49.9393 151.765 54.2959C151.765 58.6525 153.128 62.2272 155.854 65.0199C158.58 67.8126 162.016 69.209 166.161 69.209C170.344 69.209 173.798 67.8126 176.524 65.0199C179.25 62.2272 180.613 58.6525 180.613 54.2959C180.613 49.9393 179.25 46.3646 176.524 43.5719C173.798 40.7792 170.344 39.3829 166.161 39.3829Z" fill="#85A32A"/>
<path fill-rule="evenodd" clip-rule="evenodd" d="M66.7087 6.43065C60.7336 3.30282 54.1236 1.73889 46.8787 1.73889C40.9036 1.73889 35.358 2.76289 30.2418 4.81088C25.1256 6.82163 20.7749 9.61433 17.1899 13.189C13.6048 16.7637 10.7853 21.0644 8.73135 26.0913C7.85392 28.2623 7.16738 30.5109 6.67172 32.8369L0.552979 38.9379L5.73994 44.1098C5.8846 48.0135 6.49783 51.7357 7.57962 55.276L5.81374 61.9309L11.0495 63.3121C12.7572 66.3178 14.804 69.0101 17.1899 71.389C17.4938 71.692 17.8031 71.9896 18.1181 72.2816L18.4998 78.0946L25.5832 77.6322C27.0583 78.4402 28.6112 79.17 30.2418 79.8231C35.358 81.8339 40.9036 82.8393 46.8787 82.8393C53.9369 82.8393 60.3228 81.3871 66.0365 78.4826C71.7502 75.541 76.3996 71.4821 79.9847 66.3063L67.2128 57.1462C62.3207 64.2955 55.5053 67.8702 46.7667 67.8702C39.6713 67.8702 33.7708 65.5243 29.0654 60.8326C24.36 56.1408 22.0073 49.9596 22.0073 42.289C22.0073 34.7673 24.3413 28.6234 29.0094 23.8571C33.7148 19.0909 39.6339 16.7078 46.7667 16.7078C51.0987 16.7078 54.9825 17.6573 58.4182 19.5564C61.8912 21.4182 64.7668 24.0619 67.0448 27.4877L80.4889 19.2771C77.2772 13.8406 72.6838 9.55847 66.7087 6.43065Z" fill="#85A32A"/>
</svg>
