<svg viewBox="0 0 102 23" fill="none" xmlns="http://www.w3.org/2000/svg">
<path d="M11.4483 23C17.771 23 22.8966 17.8513 22.8966 11.5C22.8966 5.14873 17.771 0 11.4483 0C5.12558 0 0 5.14873 0 11.5C0 17.8513 5.12558 23 11.4483 23Z" fill="#FFA716"/>
<path d="M5.37407 9.11374C5.24462 9.3738 5.63297 10.4929 5.63297 10.4929C5.63297 10.4929 4.46794 10.3313 4.29534 10.548C4.12274 10.7648 4.82097 11.7459 4.82097 11.7459C4.82097 11.7459 3.61868 11.8208 3.53238 12.0808C3.44608 12.3409 4.05802 13.2314 4.05802 13.2314C4.05802 13.2314 2.85573 13.4068 2.76943 13.7102C2.68313 14.0136 3.57946 14.7169 3.57946 14.7169C3.57946 14.7169 2.38304 15.0322 2.3399 15.2923C2.29675 15.5523 2.95967 16.3936 2.95967 16.3936C2.95967 16.3936 2.04962 16.6615 2.00647 16.9216C1.96332 17.1817 2.8165 17.8791 2.8165 17.8791C2.5848 17.9674 2.35764 18.0674 2.13591 18.1786C2.4437 18.6115 2.78123 19.0223 3.146 19.408L6.9196 9.20633C6.9196 9.20633 5.50352 8.86156 5.37407 9.11374Z" fill="#538412"/>
<path d="M10.3036 11.0946C7.55778 11.6856 5.26695 17.4583 4.30981 20.2343C5.83964 21.5279 7.68312 22.3917 9.65293 22.7377C11.6227 23.0837 13.6486 22.8998 15.5247 22.2045C14.9854 21.3514 13.3673 18.7192 12.975 17.1982C12.6298 15.8191 12.8887 15.3364 13.3202 14.9897C13.7517 14.6429 17.3311 14.6429 19.316 14.1228C20.7124 13.7563 22.2168 12.8954 22.9837 12.4186C23.0052 12.1861 23.019 11.9497 23.0268 11.7113C20.9733 11.0847 13.3143 10.4464 10.3036 11.0946Z" fill="#FFCB27"/>
<path d="M13.8136 10.2526C14.6076 10.2526 15.2513 9.60599 15.2513 8.80841C15.2513 8.01083 14.6076 7.36426 13.8136 7.36426C13.0196 7.36426 12.376 8.01083 12.376 8.80841C12.376 9.60599 13.0196 10.2526 13.8136 10.2526Z" fill="#77A40D"/>
<path d="M22.8886 11.8586C22.8886 12.097 22.867 12.3335 22.8455 12.5659C23.1691 12.3689 23.3613 12.233 23.3613 12.233C23.4927 12.1167 23.3064 11.9887 22.8886 11.8586Z" fill="#FFCC29"/>
<path d="M28.451 8.86225C27.8469 8.55884 26.7701 10.0306 26.7701 10.0306L26.0366 10.2039C26.0366 10.2039 26.5975 9.16565 25.8208 8.99227C25.0441 8.8189 24.1811 10.334 24.1811 10.334C24.1811 10.334 23.5927 10.334 22.8396 10.3596L22.3689 10.3773C20.5586 10.464 16.7183 10.3773 15.8141 10.1606C14.9099 9.94389 14.9942 9.33903 14.9942 9.33903C14.9942 9.33903 15.1904 9.1164 14.9707 8.37955C14.7393 7.57768 14.1862 7.31761 13.4977 7.72741C12.8976 8.08008 12.8191 8.44654 12.8191 8.44654C12.8191 8.44654 11.7443 8.43471 10.7578 8.47608C10.1399 8.5017 9.7261 8.56475 9.7261 8.56475C9.7261 8.56475 9.90459 8.17071 9.4476 7.77667C9.08279 7.46341 7.77065 7.0477 7.45684 8.13327C7.38623 8.37758 7.73731 8.45836 6.91943 9.21295C5.40319 10.6387 4.26464 12.4216 3.60674 14.4004C3.16863 15.8611 2.85178 17.3556 2.65942 18.8688C4.14252 20.6875 6.14903 22.0012 8.40417 22.6299C8.56303 22.6693 8.79643 22.7363 8.79643 22.7363C8.64535 21.8532 8.53995 20.9628 8.48066 20.0687C8.40417 18.857 8.64933 16.9558 8.95137 16.0456C9.25342 15.1353 9.81436 14.097 10.8048 13.5336C11.7953 12.9701 17.1419 13.3819 21.8471 12.6233C22.2061 12.5662 22.5375 12.5071 22.8513 12.448C26.5543 11.7545 27.3428 11.0038 27.5429 10.8029C27.7429 10.6019 29.059 9.15777 28.451 8.86225Z" fill="#77A40D"/>
<path d="M27.7705 10.1817C27.7705 10.1817 28.5001 9.27347 28.1628 9.31681C27.8254 9.36016 27.1821 10.2251 27.1821 10.2251L27.7705 10.1817Z" fill="#538412"/>
<path d="M25.5287 10.3115C25.5287 10.3115 26.0014 9.36386 25.615 9.4072C25.2286 9.45055 24.7913 10.3549 24.7913 10.3549L25.5287 10.3115Z" fill="#538412"/>
<path d="M8.59855 10.2154C9.39254 10.2154 10.0362 9.56888 10.0362 8.7713C10.0362 7.97372 9.39254 7.32715 8.59855 7.32715C7.80455 7.32715 7.16089 7.97372 7.16089 8.7713C7.16089 9.56888 7.80455 10.2154 8.59855 10.2154Z" fill="#77A40D"/>
<path d="M8.61613 9.53757C9.057 9.53757 9.4144 9.17856 9.4144 8.73571C9.4144 8.29285 9.057 7.93384 8.61613 7.93384C8.17527 7.93384 7.81787 8.29285 7.81787 8.73571C7.81787 9.17856 8.17527 9.53757 8.61613 9.53757Z" fill="white"/>
<path d="M8.61606 8.99211C8.75688 8.99211 8.87103 8.87744 8.87103 8.73598C8.87103 8.59453 8.75688 8.47986 8.61606 8.47986C8.47524 8.47986 8.36108 8.59453 8.36108 8.73598C8.36108 8.87744 8.47524 8.99211 8.61606 8.99211Z" fill="#3A1B79"/>
<path d="M13.8312 9.59275C14.2721 9.59275 14.6295 9.23374 14.6295 8.79088C14.6295 8.34802 14.2721 7.98901 13.8312 7.98901C13.3904 7.98901 13.033 8.34802 13.033 8.79088C13.033 9.23374 13.3904 9.59275 13.8312 9.59275Z" fill="white"/>
<path d="M13.8314 9.04728C13.9722 9.04728 14.0864 8.93261 14.0864 8.79116C14.0864 8.6497 13.9722 8.53503 13.8314 8.53503C13.6906 8.53503 13.5764 8.6497 13.5764 8.79116C13.5764 8.93261 13.6906 9.04728 13.8314 9.04728Z" fill="#3A1B79"/>
<path d="M64.6044 6.19031C65.5566 6.19031 66.4253 6.39649 67.2106 6.80884C67.9959 7.2212 68.5996 7.78574 69.0217 8.50245L67.2548 9.58489C66.9554 9.13326 66.5775 8.78472 66.121 8.53927C65.6694 8.28891 65.159 8.16373 64.5896 8.16373C63.6522 8.16373 62.8742 8.47791 62.2558 9.10626C61.6423 9.73461 61.3355 10.5446 61.3355 11.5362C61.3355 12.5475 61.6447 13.3624 62.2632 13.9809C62.8816 14.5994 63.6571 14.9087 64.5896 14.9087C65.7382 14.9087 66.6339 14.4374 67.2769 13.4949L68.9555 14.7025C68.4843 15.3849 67.8732 15.92 67.1223 16.3078C66.3713 16.6907 65.532 16.8821 64.6044 16.8821C63.8191 16.8821 63.0902 16.7496 62.4178 16.4845C61.7454 16.2145 61.1736 15.8439 60.7024 15.3726C60.2312 14.9013 59.8606 14.3368 59.5907 13.679C59.3256 13.0163 59.1931 12.302 59.1931 11.5362C59.1931 10.7704 59.3256 10.0586 59.5907 9.4008C59.8606 8.73808 60.2312 8.17109 60.7024 7.69983C61.1736 7.22856 61.7454 6.86039 62.4178 6.5953C63.0902 6.32531 63.8191 6.19031 64.6044 6.19031Z" fill="#424C6D"/>
<path d="M74.0089 9.36377C75.1182 9.36377 76.0384 9.72213 76.7698 10.4388C77.506 11.1506 77.8741 12.0441 77.8741 13.1192C77.8741 14.1942 77.506 15.0901 76.7698 15.8068C76.0384 16.5187 75.1182 16.8746 74.0089 16.8746C72.9046 16.8746 71.9867 16.5187 71.2554 15.8068C70.5241 15.0901 70.1584 14.1942 70.1584 13.1192C70.1584 12.0441 70.5241 11.1506 71.2554 10.4388C71.9867 9.72213 72.9046 9.36377 74.0089 9.36377ZM74.0089 11.1531C73.4641 11.1531 73.0126 11.3372 72.6543 11.7054C72.296 12.0735 72.1168 12.5448 72.1168 13.1192C72.1168 13.6935 72.296 14.1648 72.6543 14.533C73.0126 14.9011 73.4641 15.0852 74.0089 15.0852C74.5586 15.0852 75.0126 14.9011 75.3709 14.533C75.7292 14.1648 75.9084 13.6935 75.9084 13.1192C75.9084 12.5448 75.7292 12.0735 75.3709 11.7054C75.0126 11.3372 74.5586 11.1531 74.0089 11.1531Z" fill="#424C6D"/>
<path d="M82.6018 9.36429C83.4755 9.36429 84.1749 9.67601 84.7001 10.2995V6.08752H86.6142V16.691H84.7369V15.9031C84.2117 16.5511 83.5 16.8751 82.6018 16.8751C81.6153 16.8751 80.7932 16.5167 80.1355 15.8C79.4778 15.0833 79.1489 14.1898 79.1489 13.1197C79.1489 12.0495 79.4778 11.1561 80.1355 10.4394C80.7932 9.72265 81.6153 9.36429 82.6018 9.36429ZM82.9552 11.1536C82.4055 11.1536 81.9613 11.3426 81.6226 11.7206C81.284 12.0937 81.1146 12.5601 81.1146 13.1197C81.1146 13.6793 81.284 14.1481 81.6226 14.5261C81.9613 14.8992 82.4055 15.0857 82.9552 15.0857C83.5 15.0857 83.9417 14.9017 84.2804 14.5335C84.624 14.1604 84.7958 13.6891 84.7958 13.1197C84.7958 12.5502 84.624 12.0814 84.2804 11.7132C83.9417 11.3402 83.5 11.1536 82.9552 11.1536Z" fill="#424C6D"/>
<path d="M91.9483 9.36377C92.9741 9.36377 93.8085 9.71231 94.4515 10.4094C95.0945 11.1016 95.416 12.0024 95.416 13.1118C95.416 13.3572 95.4037 13.5732 95.3791 13.7598H90.3213C90.4145 14.2556 90.6231 14.6262 90.9471 14.8717C91.2759 15.1171 91.6784 15.2399 92.1545 15.2399C92.8171 15.2399 93.4183 15.0116 93.9582 14.555L95.0846 15.7921C94.2895 16.5137 93.276 16.8746 92.044 16.8746C90.9495 16.8746 90.0587 16.5309 89.3715 15.8437C88.6844 15.1564 88.3408 14.2556 88.3408 13.1413C88.3408 12.022 88.6746 11.1138 89.3421 10.4168C90.0096 9.71476 90.8783 9.36377 91.9483 9.36377ZM91.9336 11.0206C91.487 11.0206 91.1287 11.1457 90.8587 11.3961C90.5937 11.6416 90.417 11.9925 90.3286 12.4491H93.487C93.3987 11.9876 93.222 11.6342 92.957 11.3887C92.6919 11.1433 92.3508 11.0206 91.9336 11.0206Z" fill="#424C6D"/>
<path d="M100.999 9.36377C101.381 9.36377 101.715 9.41531 102 9.5184L101.713 11.4256C101.369 11.2734 100.981 11.1973 100.549 11.1973C100.093 11.1973 99.7273 11.3372 99.4525 11.617C99.1825 11.8919 99.0475 12.2871 99.0475 12.8025V16.6905H97.126V9.55522H98.9886V10.3358C99.4206 9.68776 100.091 9.36377 100.999 9.36377Z" fill="#424C6D"/>
<path d="M48.3518 9.36377C48.7346 9.36377 49.0684 9.41531 49.3531 9.5184L49.0659 11.4256C48.7224 11.2734 48.3346 11.1973 47.9027 11.1973C47.4462 11.1973 47.0806 11.3372 46.8057 11.617C46.5358 11.8919 46.4008 12.2871 46.4008 12.8025V16.6905H44.4792V9.55522H46.3419V10.3358C46.7738 9.68776 47.4438 9.36377 48.3518 9.36377Z" fill="#85A32A"/>
<path d="M53.974 9.36377C55.0832 9.36377 56.0035 9.72213 56.7348 10.4388C57.471 11.1506 57.8392 12.0441 57.8392 13.1192C57.8392 14.1942 57.471 15.0901 56.7348 15.8068C56.0035 16.5187 55.0832 16.8746 53.974 16.8746C52.8696 16.8746 51.9518 16.5187 51.2205 15.8068C50.4892 15.0901 50.1235 14.1942 50.1235 13.1192C50.1235 12.0441 50.4892 11.1506 51.2205 10.4388C51.9518 9.72213 52.8696 9.36377 53.974 9.36377ZM53.974 11.1531C53.4292 11.1531 52.9776 11.3372 52.6193 11.7054C52.261 12.0735 52.0819 12.5448 52.0819 13.1192C52.0819 13.6935 52.261 14.1648 52.6193 14.533C52.9776 14.9011 53.4292 15.0852 53.974 15.0852C54.5237 15.0852 54.9777 14.9011 55.336 14.533C55.6943 14.1648 55.8734 13.6935 55.8734 13.1192C55.8734 12.5448 55.6943 12.0735 55.336 11.7054C54.9777 11.3372 54.5237 11.1531 53.974 11.1531Z" fill="#85A32A"/>
<path fill-rule="evenodd" clip-rule="evenodd" d="M40.9031 6.80884C40.1178 6.39649 39.249 6.19031 38.2968 6.19031C37.5115 6.19031 36.7827 6.32531 36.1102 6.5953C35.4378 6.86039 34.866 7.22856 34.3948 7.69983C33.9236 8.17109 33.5531 8.73808 33.2831 9.4008C33.1678 9.68701 33.0776 9.98345 33.0124 10.2901L32.2083 11.0944L32.89 11.7763C32.909 12.2909 32.9896 12.7816 33.1318 13.2484L32.8997 14.1257L33.5878 14.3078C33.8122 14.704 34.0813 15.059 34.3948 15.3726C34.4348 15.4126 34.4754 15.4518 34.5168 15.4903L34.567 16.2566L35.498 16.1957C35.6918 16.3022 35.8959 16.3984 36.1102 16.4845C36.7827 16.7496 37.5115 16.8821 38.2968 16.8821C39.2245 16.8821 40.0638 16.6907 40.8147 16.3078C41.5657 15.92 42.1767 15.3849 42.6479 14.7025L40.9693 13.4949C40.3264 14.4374 39.4306 14.9087 38.2821 14.9087C37.3495 14.9087 36.5741 14.5994 35.9556 13.9809C35.3372 13.3624 35.028 12.5475 35.028 11.5362C35.028 10.5446 35.3347 9.73461 35.9483 9.10626C36.5667 8.47791 37.3446 8.16373 38.2821 8.16373C38.8514 8.16373 39.3619 8.28891 39.8134 8.53927C40.2699 8.78472 40.6478 9.13326 40.9472 9.58489L42.7142 8.50245C42.2921 7.78574 41.6884 7.2212 40.9031 6.80884Z" fill="#85A32A"/>
</svg>