<svg viewBox="0 0 284 230" fill="none" xmlns="http://www.w3.org/2000/svg">
<path d="M113.583 229.004C176.313 229.004 227.165 177.739 227.165 114.502C227.165 51.2642 176.313 0 113.583 0C50.8527 0 0 51.2642 0 114.502C0 177.739 50.8527 229.004 113.583 229.004Z" fill="#FFA716"/>
<path d="M53.3183 90.7457C52.034 93.3351 55.8869 104.477 55.8869 104.477C55.8869 104.477 44.3282 102.869 42.6158 105.026C40.9034 107.184 47.8308 116.953 47.8308 116.953C47.8308 116.953 35.9024 117.699 35.0462 120.288C34.19 122.878 40.2613 131.744 40.2613 131.744C40.2613 131.744 28.3329 133.49 27.4767 136.511C26.6205 139.532 35.5133 146.535 35.5133 146.535C35.5133 146.535 23.6432 149.674 23.2151 152.263C22.787 154.853 29.3641 163.229 29.3641 163.229C29.3641 163.229 20.3352 165.897 19.9071 168.486C19.479 171.075 27.9437 178.02 27.9437 178.02C25.6449 178.899 23.3912 179.894 21.1913 181.001C24.2451 185.312 27.5937 189.402 31.2128 193.242L68.652 91.6676C68.652 91.6676 54.6026 88.2348 53.3183 90.7457Z" fill="#538412"/>
<path d="M102.226 110.464C74.9835 116.349 52.2553 173.825 42.7593 201.465C57.9372 214.345 76.2271 222.945 95.7702 226.39C115.313 229.836 135.413 228.004 154.026 221.081C148.675 212.588 132.621 186.38 128.729 171.236C125.305 157.504 127.873 152.698 132.154 149.246C136.435 145.793 171.948 145.793 191.641 140.614C205.495 136.966 220.421 128.393 228.029 123.646C228.243 121.331 228.379 118.977 228.457 116.604C208.084 110.366 132.096 104.01 102.226 110.464Z" fill="#FFCB27"/>
<path d="M137.05 102.084C144.928 102.084 151.314 95.6459 151.314 87.7046C151.314 79.7633 144.928 73.3257 137.05 73.3257C129.173 73.3257 122.787 79.7633 122.787 87.7046C122.787 95.6459 129.173 102.084 137.05 102.084Z" fill="#77A40D"/>
<path d="M227.087 118.073C227.087 120.447 226.873 122.801 226.659 125.115C229.87 123.154 231.777 121.8 231.777 121.8C233.081 120.643 231.232 119.368 227.087 118.073Z" fill="#FFCC29"/>
<path d="M282.273 88.2364C276.279 85.2155 265.596 99.869 265.596 99.869L258.319 101.595C258.319 101.595 263.884 91.2573 256.178 89.5311C248.472 87.8048 239.91 102.89 239.91 102.89C239.91 102.89 234.073 102.89 226.6 103.145L221.93 103.322C203.969 104.185 165.868 103.322 156.898 101.164C147.927 99.006 148.764 92.9836 148.764 92.9836C148.764 92.9836 150.71 90.767 148.53 83.4304C146.234 75.4464 140.747 72.8571 133.917 76.9373C127.962 80.4487 127.184 84.0974 127.184 84.0974C127.184 84.0974 116.52 83.9796 106.732 84.3916C100.603 84.6466 96.4969 85.2743 96.4969 85.2743C96.4969 85.2743 98.2677 81.351 93.7337 77.4277C90.1143 74.3087 77.0962 70.1696 73.9827 80.9783C73.2822 83.4108 76.7654 84.2151 68.6509 91.7283C53.6078 105.924 42.3118 123.676 35.7845 143.379C31.4379 157.921 28.2943 172.802 26.3859 187.869C41.1002 205.977 61.0074 219.057 83.3815 225.317C84.9577 225.709 87.2733 226.376 87.2733 226.376C85.7744 217.583 84.7287 208.718 84.1404 199.815C83.3815 187.751 85.8138 168.821 88.8105 159.758C91.8072 150.696 97.3725 140.358 107.199 134.747C117.026 129.137 170.072 133.237 216.754 125.684C220.315 125.116 223.604 124.527 226.717 123.939C263.456 117.034 271.278 109.56 273.263 107.559C275.248 105.558 288.305 91.1789 282.273 88.2364Z" fill="#77A40D"/>
<path d="M275.521 101.379C275.521 101.379 282.759 92.3356 279.412 92.7672C276.065 93.1987 269.683 101.81 269.683 101.81L275.521 101.379Z" fill="#538412"/>
<path d="M253.279 102.671C253.279 102.671 257.968 93.2354 254.135 93.667C250.302 94.0985 245.962 103.103 245.962 103.103L253.279 102.671Z" fill="#538412"/>
<path d="M85.309 101.71C93.1866 101.71 99.5725 95.2719 99.5725 87.3306C99.5725 79.3893 93.1866 72.9517 85.309 72.9517C77.4315 72.9517 71.0455 79.3893 71.0455 87.3306C71.0455 95.2719 77.4315 101.71 85.309 101.71Z" fill="#77A40D"/>
<path d="M85.4831 94.9637C89.8571 94.9637 93.4029 91.3892 93.4029 86.9798C93.4029 82.5704 89.8571 78.9958 85.4831 78.9958C81.1091 78.9958 77.5632 82.5704 77.5632 86.9798C77.5632 91.3892 81.1091 94.9637 85.4831 94.9637Z" fill="white"/>
<path d="M85.4833 89.5278C86.8804 89.5278 88.013 88.386 88.013 86.9776C88.013 85.5692 86.8804 84.4275 85.4833 84.4275C84.0862 84.4275 82.9536 85.5692 82.9536 86.9776C82.9536 88.386 84.0862 89.5278 85.4833 89.5278Z" fill="#3A1B79"/>
<path d="M137.225 95.5138C141.599 95.5138 145.145 91.9392 145.145 87.5298C145.145 83.1204 141.599 79.5459 137.225 79.5459C132.851 79.5459 129.305 83.1204 129.305 87.5298C129.305 91.9392 132.851 95.5138 137.225 95.5138Z" fill="white"/>
<path d="M137.226 90.0778C138.623 90.0778 139.756 88.9361 139.756 87.5277C139.756 86.1193 138.623 84.9775 137.226 84.9775C135.829 84.9775 134.696 86.1193 134.696 87.5277C134.696 88.9361 135.829 90.0778 137.226 90.0778Z" fill="#3A1B79"/>
</svg>
